<svg width="35" height="28" viewBox="0 0 35 28" fill="none" xmlns="http://www.w3.org/2000/svg">
<path fill-rule="evenodd" clip-rule="evenodd" d="M5.98853 26.0539V13.1365H7.43481V12.9173H7.56833V12.6179H7.67968V12.5176H8.45846V12.6179H8.56955V12.8175H8.6809V13.1365H11.3957V12.8175H11.6183V13.017H11.7295V13.1365H13.065V13.017H13.1981V12.8175H13.4207V13.1365H20.0521V12.0186H20.3859V13.1365H23.88V12.9173H24.1026V13.017H24.4583V13.1365H26.7062V12.9173H26.8175V12.7176H26.9289V12.5175H27.7075V12.6178H27.8188V12.8174H27.9302V13.017H28.0414V13.1364H30.8674V12.7175H31.0901V12.9172H31.2012V13.1364H33.56V8.98399H31.3124V9.28346H31.0901V9.08389H30.9787V8.98399H28.7314V9.28346H28.5088V9.08389H28.3976V8.98399H24.4584V9.08389H24.1028V9.18379H23.8802V8.98407H21.7436V9.08397H21.4099V8.98407H12.954V9.08397H12.8427V9.28354H12.7313V9.58292H12.6202V9.80277H12.5085V10.0023H12.286V9.80277H12.1747V9.48326H12.0633V9.28354H11.9521V9.08397H11.8409V8.98407H9.48219V9.38336H9.23714V9.18379H9.12605V8.98407H6.98983V9.08397H6.87848V9.38336H6.76712V9.58292H6.65603V9.80277H6.54477V10.1022H6.43341V10.3017H6.32224V10.5014H6.21097V10.8008H5.98853V0H34.9171V14.235H32.781V14.3348H32.3359V14.235H29.5097V14.3348H29.176V14.235H25.2376V14.3348H24.7921V14.235H21.5209V14.3348H21.1872V14.235H17.3598V14.3348H17.2487V14.4347H17.1374V14.5345H17.026V14.6342H16.9149V14.7341H16.5586V14.6342H16.4474V14.5345H16.3362V14.3349H16.2248V14.2351H11.8408V18.3875H16.1137V18.2877H16.2248V18.1878H16.3362V18.0679H16.4474V17.9681H16.5586V17.7684H16.9149V17.8683H17.026V18.0679H17.1374V18.1878H17.2487V18.2877H17.3598V18.3875H20.0522V17.3694H21.1872V17.2695H21.4097V18.3875H23.5457V17.2695H23.88V18.3875H31.0899V18.2877H31.4236V18.1878H31.646V18.3874H34.4721V18.2877H34.9172V26.0539H5.98853ZM19.2445 16.2772H20.8823V16.1773H20.9936V15.4267H20.8823V15.3268H19.2445V16.2772V16.2772ZM19.3557 10.9265H21.1048V10.7269H21.2161V10.2756H21.1048V10.076H19.3557V10.9265ZM12.6486 17.7425V14.8597H15.751V15.0795H15.8621V15.1794H15.9734V15.2792H16.0848V15.3791H16.1959V15.4789H16.3072V15.5786H16.4186V15.6785H16.5297V15.7784H17.0551V15.6785H17.1664V15.5786H17.2775V15.4789H17.3889V15.2793H17.5002V15.1795H17.6114V15.0796H17.7227V14.9793H17.834V14.8598H20.8246V14.9793H21.1584V15.0796H21.2697V15.1795H21.3811V15.2793H21.4922V15.4789H21.6036V16.1257H21.4922V16.3251H21.3811V16.4452H21.2697V16.5448H21.0473V16.6448H20.4685V16.7446H19.2448V17.7426H17.8341V17.6429H17.7227V17.543H17.6115V17.4431H17.5003V17.2435H17.3889V17.1437H17.2776V17.0439H17.1665V16.944H17.0552V16.8441H16.4187V16.944H16.3073V17.0439H16.196V17.1437H16.0849V17.3433H15.9735V17.4431H15.8622V17.543H15.7511V17.6429H15.6397V17.7426H12.6486V17.7425V17.7425ZM22.2173 17.7425V14.8597H24.5405V14.9792H24.8743V15.0795H24.9855V15.1794H25.0973V15.2792H25.2086V15.4788H25.3197V15.7263H25.2086V15.9259H25.0973V16.1256H24.9855V16.6966H25.0973V16.7963H25.2086V17.7425H24.7096V17.0439H24.5983V16.7444H24.4653V16.6446H22.8494V17.7424H22.2173V17.7425V17.7425ZM25.9339 17.7425V14.8597H28.4796V15.327H26.566V16.0777H28.3684V16.4451H26.566V17.2954H28.4796V17.7425H25.9339V17.7425ZM29.2051 17.7425V17.2954H30.8962V17.1955H31.1188V16.6446H31.0075V16.5447H29.9838V16.445H29.5388V16.325H29.4274V16.2251H29.3162V16.1254H29.2049V16.0255H29.0935V15.3788H29.2049V15.2789H29.3162V15.0794H29.5387V14.9791H29.761V14.8595H31.6168V15.3268H29.8144V15.4267H29.7032V15.9777H29.9481V16.0775H31.172V16.1773H31.3944V16.2772H31.5057V16.3771H31.6168V16.4768H31.7506V17.2434H31.6168V17.3433H31.5057V17.4431H31.3944V17.543H31.283V17.6429H30.8382V17.7426H29.2051V17.7425V17.7425ZM32.3648 17.7425V17.2954H34.1673V17.1955H34.2786V16.5447H33.1437V16.445H32.8099V16.325H32.5874V16.2251H32.4762V16.1254H32.3648V15.9257H32.2535V15.4787H32.3648V15.279H32.4762V15.1793H32.5874V15.0794H32.6986V14.9791H32.9211V14.8595H34.7769V15.3268H32.9745V15.4267H32.8633V15.9777H33.0857V16.0775H34.332V16.1773H34.6657V16.2772H34.7769V16.4767H34.8882V16.7962H35V16.944H34.8882V17.2433H34.7769V17.4429H34.5545V17.5428H34.4431V17.6427H33.9981V17.7425H32.3648V17.7425ZM18.1096 17.3951H18.6124V15.2272H18.1096V15.3269H17.9982V15.4267H17.887V15.5266H17.7758V15.6264H17.6644V15.7263H17.5532V15.8262H17.4419V16.0258H17.3305V16.5767H17.4419V16.6967H17.5532V16.8962H17.6644V16.9961H17.7758V17.0959H17.887V17.1957H17.9982V17.2956H18.1096V17.3951V17.3951ZM13.1692 17.2954H15.4752V17.1955H15.5863V17.0957H15.6977V16.996H15.8091V16.8961H15.9201V16.7962H16.0314V16.5765H16.1428V16.4766H16.2539V16.0255H16.1428V15.9256H16.0314V15.8259H15.9201V15.726H15.8091V15.6261H15.6977V15.5263H15.5863V15.4264H15.4752V15.3266H13.1692V16.0773H14.9717V16.4447H13.1692V17.2954V17.2954ZM22.8494 16.1773H24.4654V16.0776H24.5984V15.4267H24.4654V15.3269H22.8494V16.1773ZM6.23999 12.492V12.344H6.35135V12.1443H6.46244V11.9447H6.57379V11.6453H6.68506V11.4255H6.79624V11.126H6.90759V10.9265H7.01886V10.7269H7.13004V10.4275H7.24139V10.2278H7.35266V10.0282H7.46383V9.70871H7.57519V9.60881H8.54087V9.70871H8.65223V9.92832H8.76358V10.128H8.87476V10.4274H8.98602V10.627H9.09738V10.8266H9.20856V11.1259H9.34225V11.3257H9.45361V11.5252H9.56487V11.8447H9.67596V12.0445H10.179V9.60865H11.256V9.70855H11.3671V9.92816H11.4785V10.1279H11.5898V10.3274H11.7009V10.527H11.8123V10.7267H11.9236V11.0261H12.0347V11.2257H12.1461V11.4253H12.7607V11.1258H12.8721V10.9262H12.9834V10.7267H13.0945V10.4273H13.2059V10.2275H13.339V9.92816H13.4501V9.70855H13.5615V9.60865H14.6166V12.4919H14.1182V10.4754H13.6148V10.675H13.5034V10.8745H13.3923V11.0743H13.281V11.3938H13.1696V11.5933H13.0585V11.7929H12.9254V11.9926H12.814V12.292H12.7026V12.492H12.2039V12.3918H12.0927V12.1922H11.9816V11.9926H11.8702V11.7929H11.7589V11.4935H11.6477V11.2738H11.5363V11.0743H11.4027V10.8745H11.2913V10.5751H10.7884V12.4921H9.26643V12.1923H9.15525V11.9927H9.04399V11.793H7.07216V11.9927H6.96081V12.1923H6.84945V12.4921H6.23999V12.492V12.492ZM15.4752 12.492V9.60881H17.9983V10.076H16.0848V10.8266H17.8872V11.2737H16.0848V12.0446H17.9983V12.492H15.4752ZM18.7238 12.492V9.60881H21.047V9.70871H21.3808V9.80853H21.492V9.92832H21.6033V10.0282H21.7146V10.2278H21.8258V10.4754H21.7146V10.7748H21.6033V10.8745H21.492V11.4255H21.6033V11.5253H21.7146V12.492H21.2162V11.6931H21.1049V11.4934H20.9937V11.3937H19.3558V12.492H18.7238V12.492V12.492ZM22.5511 12.492V9.60881H23.0719V12.492H22.5511ZM24.9322 12.492V12.3918H24.4654V12.292H24.2428V12.1922H24.1317V12.0923H24.0203V11.8927H23.9085V11.6932H23.7973V11.1738H23.686V10.9265H23.7973V10.4275H23.9085V10.2278H24.0203V10.1281H24.1317V9.9284H24.354V9.80861H24.5983V9.70879H24.9321V9.60889H25.9871V10.0761H24.8743V10.176H24.6517V10.2757H24.5405V10.3756H24.4292V10.675H24.3179V11.5254H24.4292V11.7452H24.5405V11.9448H24.7629V12.0447H25.7114V11.9448H25.8227V11.6453H25.9339V11.4256H26.0452V11.226H26.1565V10.9266H26.2677V10.7271H26.4009V10.5273H26.5122V10.2279H26.624V10.0284H26.7352V9.80869H26.8466V9.60896H27.9011V9.92847H28.0349V10.1282H28.146V10.3278H28.2574V10.6272H28.3687V10.8267H28.4798V11.0264H28.5912V11.3258H28.7026V11.5254H28.8137V11.7452H28.9251V12.0447H29.4279V9.60889H30.5051V9.80861H30.6162V9.9284H30.7276V10.1281H30.839V10.3277H30.95V10.4276H31.0614V10.6272H31.1727V10.8267H31.2839V10.9265H31.3953V11.1261H31.5065V11.3258H31.6177V11.4256H32.1432V9.60889H32.7528V12.4921H31.7871V12.3919H31.6758V12.1923H31.5644V12.0924H31.4532V11.8928H31.342V11.6932H31.2306V11.5933H31.1194V11.3938H31.0081V11.1739H30.8967V11.0743H30.7856V10.8745H30.6742V10.7749H30.5629V10.5751H30.0601V12.4921H28.6493V12.3919H28.538V12.1923H28.4266V11.9927H28.3155V11.793H26.3438V11.9927H26.2321V12.2921H26.1207V12.4921H24.9322V12.492V12.492ZM26.4851 11.3988H28.2376L27.3746 9.93858L26.4851 11.3988ZM7.18044 11.3497H8.93237L8.0696 9.88949L7.18044 11.3497V11.3497Z" fill="url(#paint0_linear_1201_202)"/>
<path d="M0.285645 25.1537C0.285645 24.5863 0.510024 24.1018 0.95887 23.7001C1.40772 23.2985 1.9483 23.0977 2.58072 23.0977C3.21313 23.0977 3.75319 23.2985 4.20089 23.7001C4.64851 24.1018 4.87245 24.5862 4.87245 25.1537C4.87245 25.7211 4.64859 26.2061 4.20089 26.6087C3.75319 27.0115 3.21322 27.2127 2.58072 27.2127C1.9483 27.2127 1.40772 27.0114 0.95887 26.6087C0.510024 26.2061 0.285645 25.721 0.285645 25.1537V25.1537ZM4.49836 25.1537C4.49836 24.6778 4.31137 24.2721 3.93737 23.9366C3.56338 23.601 3.11119 23.4332 2.58072 23.4332C2.05033 23.4332 1.59753 23.601 1.22239 23.9366C0.847164 24.2721 0.659639 24.6778 0.659639 25.1537C0.659639 25.6295 0.847164 26.0358 1.22239 26.3723C1.59753 26.7089 2.05033 26.8772 2.58072 26.8772C3.11119 26.8772 3.56338 26.7089 3.93737 26.3723C4.31137 26.0357 4.49836 25.6295 4.49836 25.1537ZM3.29475 26.3952L2.57729 25.3061H2.16925V26.3952H1.76465V23.8603H2.48889C3.16889 23.8603 3.50893 24.0941 3.50893 24.5619C3.50893 24.8873 3.32642 25.1171 2.96148 25.2513L3.73331 26.3952H3.29475V26.3952ZM2.16934 24.1714V25.0133C2.20338 25.0174 2.29178 25.0194 2.43453 25.0194C2.69744 25.0194 2.87432 24.9894 2.96491 24.9294C3.05551 24.8694 3.1009 24.755 3.1009 24.5862C3.1009 24.3076 2.89692 24.1682 2.48889 24.1682H2.32907L2.16934 24.1714V24.1714Z" fill="url(#paint1_linear_1201_202)"/>
<defs>
<linearGradient id="paint0_linear_1201_202" x1="20.4943" y1="0" x2="20.4943" y2="26.0539" gradientUnits="userSpaceOnUse">
<stop stop-color="white"/>
<stop offset="1" stop-color="white" stop-opacity="0.75"/>
</linearGradient>
<linearGradient id="paint1_linear_1201_202" x1="2.57905" y1="23.0977" x2="2.57905" y2="27.2127" gradientUnits="userSpaceOnUse">
<stop stop-color="white"/>
<stop offset="1" stop-color="white" stop-opacity="0.75"/>
</linearGradient>
</defs>
</svg>
