<svg width="58" height="27" viewBox="0 0 58 27" fill="none" xmlns="http://www.w3.org/2000/svg">
<path d="M11.9545 8.27079C12.5125 8.08749 13.1078 7.98972 13.7254 7.98972C16.4288 7.98972 18.6858 9.88146 19.2017 12.3964L23.0337 11.6265C22.1557 7.35426 18.3212 4.13782 13.7254 4.13782C12.6713 4.13782 11.6618 4.30646 10.7144 4.61931L11.9545 8.27079Z" fill="url(#paint0_linear_1201_388)"/>
<path d="M7.43298 20.5061L10.0248 17.6196C8.86904 16.6102 8.13985 15.1364 8.13985 13.4939C8.13985 11.8539 8.86904 10.3802 10.0248 9.37318L7.43298 6.48425C5.46864 8.20001 4.22852 10.7052 4.22852 13.4939C4.22852 16.2851 5.46864 18.7903 7.43298 20.5061" fill="url(#paint1_linear_1201_388)"/>
<path d="M19.2017 14.5986C18.6834 17.1112 16.4288 19.0005 13.7278 19.0005C13.1078 19.0005 12.51 18.9027 11.9545 18.7169L10.7144 22.3733C11.6618 22.6837 12.6737 22.8524 13.7278 22.8524C18.3188 22.8524 22.1507 19.6408 23.0337 15.3734L19.2017 14.5986Z" fill="url(#paint2_linear_1201_388)"/>
<path d="M26.3847 17.7393C26.2582 17.5389 26.0895 17.2187 25.9853 16.9816C25.3777 15.5934 25.3504 14.1563 25.8613 12.7778C26.4244 11.2649 27.5008 10.1088 28.8922 9.51735C30.6408 8.77679 32.5729 8.92099 34.2495 9.90108C35.3135 10.5023 36.0675 11.4311 36.6405 12.746C36.7124 12.9147 36.7769 13.0931 36.8414 13.2471L26.3847 17.7393ZM29.8768 11.7488C28.6342 12.2743 27.9943 13.423 28.1283 14.7673L33.3864 12.5358C32.4811 11.4897 31.3055 11.1427 29.8768 11.7488V11.7488ZM34.0412 16.6028C34.0387 16.6028 34.0387 16.6053 34.0387 16.6053L33.9296 16.5319C33.6146 17.033 33.126 17.4411 32.5084 17.7051C31.3327 18.2086 30.2439 18.079 29.4602 17.402L29.3882 17.5096C29.3882 17.5096 29.3882 17.5071 29.3858 17.5071L28.0514 19.4746C28.3837 19.7019 28.7384 19.8926 29.1105 20.0465C30.5837 20.6502 32.0917 20.6209 33.5774 19.9854C34.6513 19.526 35.4946 18.8269 36.07 17.9397L34.0412 16.6028ZM40.4947 6.62354V17.5585L42.221 18.2477L41.2413 20.5011L39.3365 19.719C38.9099 19.5357 38.6172 19.2571 38.3989 18.9418C38.1881 18.6216 38.0319 18.1793 38.0319 17.5878V6.62354H40.4947ZM44.9641 14.7746C44.9641 13.8434 45.3833 13.0075 46.043 12.4405L44.2721 10.495C43.0717 11.5411 42.3152 13.0686 42.3152 14.7697C42.3128 16.4733 43.0692 18.0033 44.2672 19.0494L46.0356 17.1038C45.3783 16.5344 44.9641 15.7034 44.9641 14.7746V14.7746ZM48.1091 17.8762C47.7618 17.8762 47.4245 17.8175 47.112 17.7149L46.2663 20.1907C46.8442 20.3814 47.4617 20.4865 48.1066 20.4865C50.9093 20.4889 53.2481 18.5288 53.7913 15.9258L51.192 15.4028C50.8969 16.8179 49.6295 17.8786 48.1091 17.8762V17.8762ZM48.1165 9.06275C47.4741 9.06275 46.8566 9.1654 46.2787 9.3536L47.117 11.8319C47.432 11.7293 47.7668 11.6731 48.114 11.6731C49.6369 11.6755 50.9068 12.7411 51.1945 14.1587L53.7938 13.6406C53.2605 11.0327 50.9217 9.06519 48.1165 9.06275V9.06275Z" fill="url(#paint3_linear_1201_388)"/>
<defs>
<linearGradient id="paint0_linear_1201_388" x1="16.874" y1="4.13782" x2="16.874" y2="12.3964" gradientUnits="userSpaceOnUse">
<stop stop-color="white"/>
<stop offset="1" stop-color="white" stop-opacity="0.75"/>
</linearGradient>
<linearGradient id="paint1_linear_1201_388" x1="7.12667" y1="6.48425" x2="7.12667" y2="20.5061" gradientUnits="userSpaceOnUse">
<stop stop-color="white"/>
<stop offset="1" stop-color="white" stop-opacity="0.75"/>
</linearGradient>
<linearGradient id="paint2_linear_1201_388" x1="16.874" y1="14.5986" x2="16.874" y2="22.8524" gradientUnits="userSpaceOnUse">
<stop stop-color="white"/>
<stop offset="1" stop-color="white" stop-opacity="0.75"/>
</linearGradient>
<linearGradient id="paint3_linear_1201_388" x1="39.6479" y1="6.62354" x2="39.6479" y2="20.5011" gradientUnits="userSpaceOnUse">
<stop stop-color="white"/>
<stop offset="1" stop-color="white" stop-opacity="0.75"/>
</linearGradient>
</defs>
</svg>
